<svg xmlns="http://www.w3.org/2000/svg" viewBox="0 0 340 60" fill="none">
  <!-- Embedded Mark -->
  <g transform="translate(0, 5) scale(0.5)">
    <defs>
      <linearGradient id="lockup-orbit-1" x1="10" y1="10" x2="90" y2="90" gradientUnits="userSpaceOnUse">
        <stop offset="0%" stop-color="#06B6D4" />
        <stop offset="50%" stop-color="#3B82F6" />
        <stop offset="100%" stop-color="#10B981" />
      </linearGradient>
      <radialGradient id="lockup-core" cx="50" cy="50" r="24" gradientUnits="userSpaceOnUse">
        <stop offset="0%" stop-color="#38BDF8" stop-opacity="0.9" />
        <stop offset="100%" stop-color="#06B6D4" stop-opacity="0" />
      </radialGradient>
    </defs>
    <circle cx="50" cy="50" r="42" stroke="#1E293B" stroke-width="2" stroke-dasharray="4 6" opacity="0.6" />
    <ellipse cx="50" cy="50" rx="40" ry="16" transform="rotate(-30 50 50)" stroke="url(#lockup-orbit-1)" stroke-width="3" fill="none" />
    <ellipse cx="50" cy="50" rx="40" ry="16" transform="rotate(35 50 50)" stroke="#06B6D4" stroke-width="2.5" fill="none" opacity="0.8" />
    <circle cx="50" cy="50" r="22" fill="url(#lockup-core)" />
    <polygon points="50,34 64,42 64,58 50,66 36,58 36,42" fill="#0F172A" stroke="#06B6D4" stroke-width="2.5" />
    <circle cx="50" cy="50" r="6" fill="#38BDF8" />
    <circle cx="85" cy="30" r="3.5" fill="#10B981" />
  </g>

  <!-- Wordmark -->
  <g transform="translate(62, 5) scale(0.85)" fill="#F8FAFC">
    <path d="M12 40 L28 6 L33 6 L49 40 L42 40 L37 29 L24 29 L19 40 Z M26 24 L35 24 L30.5 13.5 Z" />
    <polygon points="30.5,13.5 28,19 33,19" fill="#06B6D4" />
    <rect x="58" y="6" width="7" height="34" rx="1.5" />
    <circle cx="61.5" cy="1.5" r="2.5" fill="#10B981" />
    <path d="M74 6 L86 40 L93 40 L105 6 L98 6 L89.5 32 L81 6 Z" />
    <path d="M128 6 C139 6 148 14 148 23 C148 32 139 40 128 40 C117 40 108 32 108 23 C108 14 117 6 128 6 Z M128 12 C121 12 115 17 115 23 C115 29 121 34 128 34 C135 34 141 29 141 23 C141 17 135 12 128 12 Z" />
    <circle cx="145" cy="10" r="2" fill="#06B6D4" />
    <path d="M156 6 L174 6 C181 6 186 10 186 17 C186 22 182 26 176 27 L186 40 L178 40 L169.5 28 L163 28 L163 40 L156 40 Z M163 22 L173 22 C176.5 22 179 20 179 17 C179 13.5 176.5 12 173 12 L163 12 Z" />
    <path d="M192 40 L208 6 L213 6 L229 40 L222 40 L217 29 L204 29 L199 40 Z M206 24 L215 24 L210.5 13.5 Z" />
    <polygon points="210.5,13.5 208,19 213,19" fill="#10B981" />
  </g>

  <!-- Tagline Subtext -->
  <text x="65" y="52" fill="#94A3B8" font-family="system-ui, sans-serif" font-size="9" font-weight="600" letter-spacing="2.8">AI KNOWLEDGE OPERATING SYSTEM</text>
</svg>
